<?xml version="1.0" encoding="utf-8"?>
<!-- Generator: Adobe Illustrator 19.2.1, SVG Export Plug-In . SVG Version: 6.00 Build 0)  -->
<svg version="1.1" xmlns="http://www.w3.org/2000/svg" xmlns:xlink="http://www.w3.org/1999/xlink" x="0px" y="0px"
	 viewBox="0 0 1080 734.9" style="enable-background:new 0 0 1080 734.9;" xml:space="preserve">
<style type="text/css">
	.st0{fill:none;stroke:#FFFFFF;stroke-miterlimit:10;}
</style>
<g id="Layer_2">
</g>
<g id="Layer_1">
	<line class="st0" x1="10.4" y1="10.4" x2="10.4" y2="724.1"/>
	<line class="st0" x1="65.4" y1="10.4" x2="65.4" y2="724.1"/>
	<line class="st0" x1="120.4" y1="10.4" x2="120.4" y2="724.1"/>
	<line class="st0" x1="175.4" y1="10.4" x2="175.4" y2="724.1"/>
	<line class="st0" x1="230.4" y1="10.4" x2="230.4" y2="724.1"/>
	<line class="st0" x1="285.4" y1="10.4" x2="285.4" y2="724.1"/>
	<line class="st0" x1="340.4" y1="10.4" x2="340.4" y2="724.1"/>
	<line class="st0" x1="395.4" y1="10.4" x2="395.4" y2="724.1"/>
	<line class="st0" x1="450.5" y1="10.4" x2="450.5" y2="724.1"/>
	<line class="st0" x1="505.5" y1="10.4" x2="505.5" y2="724.1"/>
	<line class="st0" x1="560.5" y1="10.4" x2="560.5" y2="724.1"/>
	<line class="st0" x1="615.5" y1="10.4" x2="615.5" y2="724.1"/>
	<line class="st0" x1="670.5" y1="10.4" x2="670.5" y2="724.1"/>
	<line class="st0" x1="725.5" y1="10.4" x2="725.5" y2="724.1"/>
	<line class="st0" x1="780.1" y1="10.4" x2="780.1" y2="724.1"/>
	<line class="st0" x1="835.1" y1="10.4" x2="835.1" y2="724.1"/>
	<line class="st0" x1="890.1" y1="10.4" x2="890.1" y2="724.1"/>
	<line class="st0" x1="945.1" y1="10.4" x2="945.1" y2="724.1"/>
	<line class="st0" x1="1000.1" y1="10.4" x2="1000.1" y2="724.1"/>
	<line class="st0" x1="1055.1" y1="10.4" x2="1055.1" y2="724.1"/>
	<line class="st0" x1="10.4" y1="725.5" x2="1067.9" y2="725.5"/>
	<line class="st0" x1="10.4" y1="670.5" x2="1067.9" y2="670.5"/>
	<line class="st0" x1="10.4" y1="615.5" x2="1067.9" y2="615.5"/>
	<line class="st0" x1="10.4" y1="560.5" x2="1067.9" y2="560.5"/>
	<line class="st0" x1="10.4" y1="505.5" x2="1067.9" y2="505.5"/>
	<line class="st0" x1="10.4" y1="450.5" x2="1067.9" y2="450.5"/>
	<line class="st0" x1="10.4" y1="395.4" x2="1067.9" y2="395.4"/>
	<line class="st0" x1="10.4" y1="340.4" x2="1067.9" y2="340.4"/>
	<line class="st0" x1="10.4" y1="285.4" x2="1067.9" y2="285.4"/>
	<line class="st0" x1="10.4" y1="230.4" x2="1067.9" y2="230.4"/>
	<line class="st0" x1="10.4" y1="175.4" x2="1067.9" y2="175.4"/>
	<line class="st0" x1="10.4" y1="120.4" x2="1067.9" y2="120.4"/>
	<line class="st0" x1="10.4" y1="65.4" x2="1067.9" y2="65.4"/>
	<line class="st0" x1="10.4" y1="10.4" x2="1067.9" y2="10.4"/>
	<circle class="st0" cx="531.9" cy="368.3" r="192.8"/>
</g>
</svg>
