<?xml version="1.0" encoding="utf-8"?>
<!-- Generator: Adobe Illustrator 19.2.1, SVG Export Plug-In . SVG Version: 6.00 Build 0)  -->
<svg version="1.1" id="Layer_1" xmlns="http://www.w3.org/2000/svg" xmlns:xlink="http://www.w3.org/1999/xlink" x="0px" y="0px"
	 viewBox="0 0 520 520" style="enable-background:new 0 0 520 520;" xml:space="preserve">
<style type="text/css">
	.st0{fill:none;stroke:#FFFFFF;stroke-miterlimit:10;}
</style>
<line class="st0" x1="0" y1="0" x2="0" y2="519"/>
<line class="st0" x1="40" y1="0" x2="40" y2="519"/>
<line class="st0" x1="80" y1="0" x2="80" y2="519"/>
<line class="st0" x1="120" y1="0" x2="120" y2="519"/>
<line class="st0" x1="160" y1="0" x2="160" y2="519"/>
<line class="st0" x1="200" y1="0" x2="200" y2="519"/>
<line class="st0" x1="240" y1="0" x2="240" y2="519"/>
<line class="st0" x1="280" y1="0" x2="280" y2="519"/>
<line class="st0" x1="320" y1="0" x2="320" y2="519"/>
<line class="st0" x1="360" y1="0" x2="360" y2="519"/>
<line class="st0" x1="400" y1="0" x2="400" y2="519"/>
<line class="st0" x1="440" y1="0" x2="440" y2="519"/>
<line class="st0" x1="480" y1="0" x2="480" y2="519"/>
<line class="st0" x1="520" y1="0" x2="520" y2="519"/>
<line class="st0" x1="0" y1="520" x2="518" y2="520"/>
<line class="st0" x1="0" y1="480" x2="518" y2="480"/>
<line class="st0" x1="0" y1="440" x2="518" y2="440"/>
<line class="st0" x1="0" y1="400" x2="518" y2="400"/>
<line class="st0" x1="0" y1="360" x2="518" y2="360"/>
<line class="st0" x1="0" y1="320" x2="518" y2="320"/>
<line class="st0" x1="0" y1="280" x2="518" y2="280"/>
<line class="st0" x1="0" y1="240" x2="518" y2="240"/>
<line class="st0" x1="0" y1="200" x2="518" y2="200"/>
<line class="st0" x1="0" y1="160" x2="518" y2="160"/>
<line class="st0" x1="0" y1="120" x2="518" y2="120"/>
<line class="st0" x1="0" y1="80" x2="518" y2="80"/>
<line class="st0" x1="0" y1="40" x2="518" y2="40"/>
<line class="st0" x1="0" y1="0" x2="518" y2="0"/>
</svg>
